<svg xmlns="http://www.w3.org/2000/svg" viewBox="0 0 500 500"><g id="freepik--Character--inject-61"><polygon points="140.59 344.52 96.33 344.52 70.99 218.21 111.52 199.59 140.59 344.52" style="fill:#37474f"></polygon><polygon points="260.08 344.52 140.59 344.52 111.52 199.59 231.01 199.59 260.08 344.52" style="fill:#455a64"></polygon><rect x="50.02" y="276.75" width="67.84" height="139.2" style="fill:#37474f"></rect><polygon points="282.4 415.96 274.1 415.96 246.49 276.75 282.4 276.75 282.4 415.96" style="fill:#37474f"></polygon><rect x="117.86" y="276.75" width="37.28" height="139.2" style="fill:#455a64"></rect><rect x="282.4" y="276.75" width="37.28" height="139.2" style="fill:#455a64"></rect><rect x="155.14" y="344.52" width="127.26" height="71.43" style="fill:#455a64"></rect><rect x="155.14" y="313.64" width="127.26" height="31.17" style="fill:#455a64"></rect><path d="M127,276.75l14.07-.25,14.07-.17h.42v.43l.16,16.29.05,16.29c.05,10.86.08,21.72,0,32.59s-.05,21.72-.19,32.58-.24,21.72-.47,32.58q-.34-16.29-.47-32.58c-.14-10.86-.15-21.72-.19-32.58s0-21.73,0-32.59l.06-16.29.15-16.29.43.43L141.07,277Z" style="fill:#263238"></path><path d="M282.4,276.75c.29,10.9.43,21.8.54,32.7l.17,32.71-.17,32.7-.19,16.35-.35,16.35-.34-16.35-.2-16.35-.16-32.7.17-32.71C282,298.55,282.11,287.65,282.4,276.75Z" style="fill:#263238"></path><path d="M282.4,344.52c-12.06.29-13.88.43-25.94.54l-36.18.16-29-.16-18.09-.19-18.09-.35,18.09-.34,18.09-.2,29-.16,36.18.16C268.52,344.1,270.34,344.23,282.4,344.52Z" style="fill:#263238"></path><path d="M282.4,313.64c-12.06.29-13.88.43-25.94.54l-36.18.16-29-.16-18.09-.2-18.09-.34,18.09-.34,18.09-.2,29-.16,36.18.16C268.52,313.21,270.34,313.35,282.4,313.64Z" style="fill:#263238"></path><polygon points="75.8 415.95 74.89 427.23 72.74 453.29 62.92 453.29 60.78 427.23 59.86 415.95 75.8 415.95" style="fill:#c7c7c7"></polygon><polygon points="59.86 415.95 75.8 415.95 74.89 427.23 60.78 427.23 59.86 415.95" style="fill:#a6a6a6"></polygon><polygon points="144.47 415.95 143.56 427.23 141.41 453.29 131.59 453.29 129.45 427.23 128.53 415.95 144.47 415.95" style="fill:#c7c7c7"></polygon><polygon points="128.53 415.95 144.47 415.95 143.56 427.23 129.45 427.23 128.53 415.95" style="fill:#a6a6a6"></polygon><polygon points="240.93 415.95 240.01 427.23 237.87 453.29 228.04 453.29 225.9 427.23 224.98 415.95 240.93 415.95" style="fill:#c7c7c7"></polygon><polygon points="224.98 415.95 240.93 415.95 240.01 427.23 225.9 427.23 224.98 415.95" style="fill:#a6a6a6"></polygon><polygon points="309.61 415.95 308.69 427.23 306.55 453.29 296.73 453.29 294.59 427.23 293.67 415.95 309.61 415.95" style="fill:#c7c7c7"></polygon><polygon points="309.61 415.95 308.69 427.23 294.59 427.23 293.67 415.95 309.61 415.95" style="fill:#a6a6a6"></polygon><path d="M261.36,452.33c-2.75-.38-71.85-34.86-73.6-37.76-.22-.34,2.76-6.65,7-15.23,9.55-19.43,28.67-52.29,28.67-52.29L265,370.44l-22.91,43.38s7.69,9.3,13.93,17.2c0,0,0,0,0,0,3.84,4.86,7.14,9.18,7.75,10.48C265.37,444.91,264.1,452.71,261.36,452.33Z" style="fill:#d3766a"></path><path d="M261.36,452.32c-2.75-.37-71.85-34.85-73.6-37.75-.22-.33,2.76-6.65,7-15.24,3.36-6.81,7.88-15.27,12.34-23.38l43.76,21.33-8.72,16.54s7.68,9.3,13.92,17.2c0,0,0,0,0,0,3.85,4.85,7.14,9.18,7.75,10.48C265.37,444.91,264.1,452.71,261.36,452.32Z" style="fill:#ebebeb"></path><path d="M262.15,454.09c-2.85-.44-72.45-36.21-74.24-39.25-.83-1.4,6.16-16.52,13.87-32.31l45.34,23.14-4.4,8.06s20.52,25.61,22.13,29.16S265,454.52,262.15,454.09Z" style="fill:#FFC727"></path><path d="M262.58,450.79c-11.52-6.28-58.57-30.54-70.44-35.87-.09,0-.13,0,0,.07,11.28,6.48,58.53,30.35,70.37,36C262.73,451.1,262.82,450.92,262.58,450.79Z" style="fill:#263238"></path><path d="M245.69,412c-4.15-3.22-10.12-5.4-15.31-3.93-.2.06-.12.34.05.37a72.54,72.54,0,0,1,14.95,4.13A.33.33,0,0,0,245.69,412Z" style="fill:#263238"></path><path d="M248,415.68c-4.15-3.22-10.13-5.4-15.32-3.93-.2.06-.11.34.06.37a72.62,72.62,0,0,1,14.94,4.13A.33.33,0,0,0,248,415.68Z" style="fill:#263238"></path><path d="M250.27,419.38c-4.15-3.22-10.13-5.4-15.32-3.93-.2.06-.12.34.06.37A72.62,72.62,0,0,1,250,420,.33.33,0,0,0,250.27,419.38Z" style="fill:#263238"></path><path d="M252.56,423.08c-4.15-3.22-10.13-5.4-15.32-3.93-.2.06-.12.34.06.37a72.62,72.62,0,0,1,14.94,4.13A.33.33,0,0,0,252.56,423.08Z" style="fill:#263238"></path><path d="M259.63,405.72c-.53-3.41-4.46-4-7.21-3.39A27.44,27.44,0,0,0,240,409.21a.14.14,0,0,0,0,.22.64.64,0,0,0,.43.94c4.51.55,9.27,1.69,13.81.83C256.87,410.7,260.13,409,259.63,405.72Zm-12.22,4.08c-2.23-.22-4.43-.54-6.66-.67a80.61,80.61,0,0,1,7.37-3.86,30.12,30.12,0,0,1,3.79-1.38c2-.54,8.77-.4,5.37,4.22C255.41,410.66,250.06,410.05,247.41,409.8Z" style="fill:#263238"></path><path d="M228.9,402c2.95,3.56,7.34,5.71,11.17,8.17a.64.64,0,0,0,.93-.45.15.15,0,0,0,.16-.16,27.62,27.62,0,0,0-5.23-13.26c-1.71-2.23-5.13-4.27-7.71-2S227.17,399.93,228.9,402Zm-.39-4.34c.33-5.72,5.63-1.51,6.82.18a28.79,28.79,0,0,1,2,3.48,82.89,82.89,0,0,1,3.22,7.67c-1.8-1.32-3.71-2.48-5.56-3.73C232.83,403.77,228.33,400.83,228.51,397.67Z" style="fill:#263238"></path><path d="M252.52,406.18l-50.17-25.34s36.56-68.37,35.59-69.63c-3.37-4.35-44.09-2.37-61.68-19.85-18.62-18.51-4-47.36-4-47.36h48.65s-.82,15.71,1.28,17.43c1.38,1.15,72.91,8.05,75.71,26.93C302.73,321,252.52,406.18,252.52,406.18Z" style="fill:#263238"></path><path d="M254.5,398.35c-5.8-3.51-11.74-6.73-17.7-9.94s-12-6.35-18-9.35c-3.42-1.7-6.92-3.23-10.34-4.91a.09.09,0,1,0-.09.16c3,1.61,5.92,3.38,8.91,5s5.91,3.2,8.87,4.77c6,3.17,12,6.27,18,9.4,3.38,1.77,6.8,3.44,10.25,5.08A.13.13,0,0,0,254.5,398.35Z" style="fill:#37474f"></path><path d="M257.1,303.21c-1.19-2.47-4.37-2.83-6.73-3.43L231,295c-11.46-2.84-23.28-5.52-33.55-11.59-4.9-2.9-9.67-6.57-12.12-11.86s-2.44-10.93-2.48-16.52c0-1.39.07-2.77.16-4.15,0-.12-.18-.11-.19,0-.36,5.5-.92,11,.31,16.46a22.44,22.44,0,0,0,3.09,7.42,25.59,25.59,0,0,0,5.59,5.88c9.09,7.13,20.48,10.54,31.5,13.35,6.23,1.59,12.48,3.1,18.72,4.63l9.64,2.36a8.84,8.84,0,0,1,4,1.57,4.15,4.15,0,0,1,1.19,3.49,13.33,13.33,0,0,1-1,3.83c-.58,1.52-1.19,3-1.8,4.51q-1.77,4.4-3.66,8.75-3.78,8.76-7.85,17.41c-5.41,11.48-11.19,22.79-17.08,34-.74,1.4-1.45,2.81-2.17,4.22a.08.08,0,0,0,.13.08c6.31-11.12,12.21-22.49,17.83-34s10.87-23,15.38-34.83C257.38,307.94,258.14,305.36,257.1,303.21Z" style="fill:#37474f"></path><path d="M279.91,353.24l-48.68-27.51c4.17-8.25,7-14.16,6.71-14.51-3.37-4.36-44.09-2.37-61.68-19.86-18.62-18.51-4-47.36-4-47.36h48.65s-.82,15.71,1.28,17.43c1.38,1.16,72.91,8.05,75.71,26.93C300.11,303.37,290.73,329.44,279.91,353.24Z" style="fill:#37474f"></path><path d="M369.49,452.18c-2.64.86-79.86,0-82.71-1.8-.34-.21-.36-16.76-.36-16.76-4.18-21.58-8.5-56.63-8.5-56.63l51.57-.07,5.86,49s11,5,20,9.39l0,0c5.58,2.69,10.44,5.14,11.55,6C369.85,443.75,372.12,451.32,369.49,452.18Z" style="fill:#d3766a"></path><path d="M369.48,452.17c-2.62.88-79.86.05-82.7-1.79-.34-.21-.36-16.76-.36-16.76-1.51-7.78-3-17.29-4.36-26.29h51.06L335.35,426s11,5,20,9.39l0,0c5.58,2.69,10.43,5.14,11.54,6C369.85,443.75,372.11,451.33,369.48,452.17Z" style="fill:#ebebeb"></path><path d="M370.56,452.85c-2.74.9-81,.43-84-1.47-.92-.59-1.5-8.26-1.85-18.55-.17-5.06-1.65-10.75-1.74-16.55l52.27.16-.29,9.18s29.88,13.58,32.91,16S373.3,452,370.56,452.85Z" style="fill:#FFC727"></path><path d="M369.45,449.71c-13.11-.4-66.05-.78-79-.17-.11,0-.11.07,0,.08,13,.68,65.93.63,79,.31C369.73,449.92,369.73,449.72,369.45,449.71Z" style="fill:#263238"></path><path d="M336.85,422.72c-5.15-1-11.47-.24-15.43,3.41-.16.14,0,.36.21.31a72.16,72.16,0,0,1,15.2-3.07A.33.33,0,0,0,336.85,422.72Z" style="fill:#263238"></path><path d="M340.57,425c-5.16-1-11.48-.24-15.44,3.42-.16.14.05.36.21.3a72.91,72.91,0,0,1,15.2-3.06A.33.33,0,0,0,340.57,425Z" style="fill:#263238"></path><path d="M344.28,427.25c-5.16-1-11.47-.24-15.44,3.42-.15.14.05.35.22.3a73.36,73.36,0,0,1,15.19-3.07A.33.33,0,0,0,344.28,427.25Z" style="fill:#263238"></path><path d="M348,429.52c-5.15-1-11.47-.24-15.44,3.41-.15.15.05.36.22.31a72.67,72.67,0,0,1,15.2-3.07A.33.33,0,0,0,348,429.52Z" style="fill:#263238"></path><path d="M346.46,410.84c-2-2.81-5.8-1.58-8,.22a27.53,27.53,0,0,0-8,11.78c0,.1,0,.17.12.19,0,.39.36.81.8.65,4.27-1.56,9-2.69,12.7-5.51C346.24,416.53,348.36,413.49,346.46,410.84ZM337.4,420c-2.08.81-4.19,1.52-6.25,2.41,1.58-2.29,3-4.64,4.84-6.77a29.43,29.43,0,0,1,2.75-2.94c1.55-1.39,7.64-4.33,6.7,1.33C344.92,417.15,339.88,419,337.4,420Z" style="fill:#263238"></path><path d="M317.37,421.41c4.24,1.84,9.13,1.78,13.65,2.24a.64.64,0,0,0,.63-.82.14.14,0,0,0,.07-.21,27.55,27.55,0,0,0-10.65-9.47c-2.54-1.22-6.51-1.49-7.78,1.72C312.09,417.91,314.89,420.34,317.37,421.41Zm-2.31-3.69c-2.3-5.26,4.33-3.9,6.17-2.93a32.57,32.57,0,0,1,3.39,2.18c2.26,1.63,4.25,3.56,6.34,5.4-2.21-.37-4.43-.54-6.65-.82C321.67,421.21,316.32,420.62,315.06,417.72Z" style="fill:#263238"></path><path d="M337.06,413.69l-58.29-.42s-11.23-86.16-16-91.22c-2.4-2.57-79.33-2.9-98.2-20.88s0-57.17,0-57.17h49.64s1.23,15.32-2.56,24.7c0,0,69.41,1.12,88.33,16C325.4,304.64,337.06,413.69,337.06,413.69Z" style="fill:#263238"></path><path d="M332.31,404.4c-6.76-.49-13.51-.67-20.29-.83s-13.53-.24-20.3-.16c-3.81,0-7.63.26-11.44.31-.12,0-.13.19,0,.19,3.41.07,6.81.33,10.22.42s6.71.17,10.07.23c6.77.11,13.53.14,20.3.22,3.82,0,7.63,0,11.44-.13A.13.13,0,0,0,332.31,404.4Z" style="fill:#37474f"></path><path d="M189.89,251.24a3.27,3.27,0,0,1-.28.67.09.09,0,0,0,0,.11c-.66,2-.92,4.2-1.55,6.23a9.84,9.84,0,0,1-3.78,5.39c-3.84,2.67-8.48,3.88-12.95,5-.15,0-.1.24,0,.25a24.81,24.81,0,0,0,7.64-1.17,20.18,20.18,0,0,0,6.44-3.09,10.13,10.13,0,0,0,3.7-5.57,33.11,33.11,0,0,0,.64-3.58,26.72,26.72,0,0,0,.45-4.18A.19.19,0,0,0,189.89,251.24Z" style="fill:#37474f"></path><path d="M220.76,265.29a57.31,57.31,0,0,0-8.92,3.41l-.14.06a2.5,2.5,0,0,0,.13-.54c0-.21.07-.43.1-.64s0-.45.08-.68l0-.34v0a2.66,2.66,0,0,0,1.92-1,7.16,7.16,0,0,0,1.19-2.81c.34-1.27.65-2.55.93-3.83s.57-2.86.79-4.31a26.59,26.59,0,0,0,.49-4.27.2.2,0,0,0-.39,0c-.34,1.31-.49,2.67-.74,4s-.54,2.67-.84,4-.64,2.65-1,4c-.32,1.16-.65,2.86-2,3.24-2.78.79-1.53-5.46-1.41-6.68.29-2.84.46-5.73,1-8.53,0-.12-.16-.17-.19-.05-.6,2.58-1.3,5.12-1.75,7.73-.23,1.28-.39,2.57-.53,3.87a6,6,0,0,0,.26,3.32,2.44,2.44,0,0,0,1.84,1.36l-.09.29c-.06.21-.13.42-.18.63l-.15.63a1.47,1.47,0,0,0-.09.77.29.29,0,0,0,.14.17c-1.2.51-2.39,1-3.56,1.58a29.68,29.68,0,0,0-4.28,2.08c-.16.07,0,.29.11.26a31.24,31.24,0,0,0,4.49-1.62c1.49-.57,3-1.18,4.44-1.79a57,57,0,0,0,8.49-3.95A.15.15,0,0,0,220.76,265.29Z" style="fill:#37474f"></path><path d="M163.56,267.32a75,75,0,0,1,3-14.43c.38-1.21.79-2.42,1.21-3.62a.1.1,0,0,1,.19.06,78.42,78.42,0,0,0-3.31,14.51,57.64,57.64,0,0,0-.45,14.43,25.61,25.61,0,0,0,4.58,12.19,31.59,31.59,0,0,0,8.88,8.08c8,5,17.59,6.85,26.78,8.64q15.15,3,30.43,5.31c11.44,1.79,33.89,3,34.89,5,1.91,3.89,4.93,22,6.88,33.16s3.26,19.83,4.46,31c.67,6.34,1.27,12.69,1.63,19.05,0,.41-.6.38-.64,0-1.07-11.25-1.95-20.13-3.52-31.33s-3.45-22.11-5.67-33.07c-1.23-6.1-3.56-16.88-4.3-17.89-1.15-1.57-20.39-2.95-30.69-4.54s-20.79-3.39-31.14-5.37c-9.46-1.81-19.3-3.43-27.8-8.17-7.34-4.08-13.32-10.51-15.11-18.82A44.51,44.51,0,0,1,163.56,267.32Z" style="fill:#37474f"></path><path d="M234.83,318.89c2-.05,25.28,2.11,29.24,2.9.29.06,7.35,39.45,8,46.71.09,1-.28,1.84-.56,0-.54-3.57-8.69-45.68-8.7-45.7-4-.46-26.11-3.29-28.07-3.63C234.62,319.14,234.68,318.9,234.83,318.89Z" style="fill:#37474f"></path><path d="M213.62,268.6a378.85,378.85,0,0,1,40.8,3.23c6,.78,12.07,1.66,18.05,2.76a92.74,92.74,0,0,1,15.75,4.08,48.86,48.86,0,0,1,8.06,3.77,42.77,42.77,0,0,1,7,5.47c.1.09,0,.22-.14.14a49.11,49.11,0,0,0-14-7.68,91.49,91.49,0,0,0-15.44-4.18c-5.85-1.12-11.75-1.94-17.65-2.75q-9.57-1.32-19.18-2.31c-7.23-.76-16-1.38-23.27-2.1A.22.22,0,0,1,213.62,268.6Z" style="fill:#37474f"></path><path d="M221.17,142.84s-9.42-7.52-19.65-3.34-17,17.61-17.47,29.77-11.46,18.37-14,27,2.55,13.73,3.71,18.7c1.33,5.69-10.81,23,11.18,31.26,27.49,10.3,41.33-5.33,40.89-20.28-.22-7.32-3.34-13-2.3-18.74s5.87-9.59,5-17.21-3.85-7.11-3.06-18.71S230.91,146.49,221.17,142.84Z" style="fill:#263238"></path><path d="M203.54,139.56a35.76,35.76,0,0,0-16.19,13.89,33.33,33.33,0,0,0-4.17,9.93c-1.08,4.6-1.11,9.07-3.6,13.29-4,6.75-10.56,11.84-11.67,19.93a20.21,20.21,0,0,0,1.63,11.08c1.84,4,4.85,7.51,6.25,11.75.06.18.33.08.28-.09-1.13-3.75-3.46-6.87-5.24-10.36a20.5,20.5,0,0,1-2.05-13.36c1.52-7.61,8-12.56,11.71-19.1a24.61,24.61,0,0,0,2.75-9.33,34.93,34.93,0,0,1,3.43-11.25,37.69,37.69,0,0,1,16.93-16.27C203.66,139.64,203.6,139.53,203.54,139.56Z" style="fill:#263238"></path><path d="M176.81,224.39s0,.05,0,.05S176.85,224.4,176.81,224.39Z" style="fill:#263238"></path><path d="M226.07,223.92c-.14-3.54-1.4-6.95-1.53-10.47-.16-4.25,1.57-8.16,3-12.06,2.1-5.55,2.89-11,1.28-16.84-1-3.78-2.49-7.39-3.08-11.28a43.39,43.39,0,0,1-.08-12.72c0-.09-.13-.12-.14,0a40,40,0,0,0,.8,18.27c1,3.49,2.42,6.86,2.71,10.49.36,4.38-.74,8.36-2.19,12.44a48.72,48.72,0,0,0-2.5,8.31,24.23,24.23,0,0,0,.59,8.72,29.87,29.87,0,0,1-3.81,21.66c-.07.11.13.24.21.12A28.42,28.42,0,0,0,226.07,223.92Z" style="fill:#263238"></path><path d="M169.45,195.15c1.32-6.26,6.44-9.79,10-14.8,2.71-3.78,4.83-8,4.93-12.62,0-.07-.13-.08-.14,0-.78,6.64-4.55,12.13-9.13,17-3,3.25-5.65,6.43-6.42,10.83s.35,8.25,2.21,12.24c1.32,2.85,2.64,5.52,2.87,8.66a32.49,32.49,0,0,1-1.13,9.25c0,.16.22.2.26,0,1.22-4.65,2.07-9.22.42-13.93C171.34,206.07,168.1,201.5,169.45,195.15Z" style="fill:#263238"></path><path d="M227.92,219.64a38.37,38.37,0,0,0-2.59-6.72c-1.8-3.95-1.72-6.89-.2-11,0-.1-.11-.16-.15-.07-1.75,3.27-2.51,6.1-1,9.64,2.11,4.94,4.23,9.47,3.91,14.89-.55,9.61-7.38,17.5-16.83,20.81-.13,0-.05.23.09.19,7.85-2.34,14-7.93,16.38-15.37A22.85,22.85,0,0,0,227.92,219.64Z" style="fill:#263238"></path><path d="M202.61,198.4c2.49,19,10.33,49.07,20.11,50,8.92.85,37.62-7.11,46.52-11.35s-6.94-28.8-12.5-27c-8.39,2.69-27.26,9.61-29.06,8.8-2.25-1-4.58-7.07-16-25.45C207,185.88,201.55,190.29,202.61,198.4Z" style="fill:#d3766a"></path><path d="M268.24,237.23c3.32-.5,18.35-4.13,22.3-6.07s14.94-8.38,13.76-11.56-4.55-1.55-4.55-1.55,4.2-3.45,2.72-6.54-6.63-.4-6.63-.4,4.06-3.85,2.36-6.83-6.42.6-6.42.6,3.88-3.35,1.44-5.22c-2.92-2.24-9.37,4.74-13.9,6.56-1,.42-21.44,6.9-21.44,6.9Z" style="fill:#d3766a"></path><path d="M292.19,204.58c-4.76,5.12-7.72,6.55-14.38,8.31-.13,0-.11.24,0,.22,6.68-1.14,10.66-2.39,14.61-8.31C292.64,204.51,292.42,204.33,292.19,204.58Z" style="fill:#263238"></path><path d="M296.21,210.7c-5.4,4.89-8.61,6.46-15.44,8.82a.09.09,0,0,0,.05.18c6.89-1.76,10.84-3.09,15.59-8.69C296.63,210.76,296.46,210.47,296.21,210.7Z" style="fill:#263238"></path><path d="M299.4,218.16c-5.58,4.36-9,6.23-15.95,7.67a.13.13,0,0,0,0,.26c7.21-.79,11.52-3.09,16-7.75C299.82,218,299.75,217.88,299.4,218.16Z" style="fill:#263238"></path><path d="M253.69,214s5.37-6.93,8.4-9.45,17.78-7.77,19.09-4.65c1.7,4-6.22,8.73-10.4,10.53,0,0,3.94,9.32-1,13.93S253.69,214,253.69,214Z" style="fill:#d3766a"></path><path d="M281.28,201.11c-1.1,4.79-6.74,6.8-10.66,8.84a.4.4,0,0,0-.11.66c1.38,4,2.17,10.08-.47,13.71a.1.1,0,0,0,.16.13c3.36-3.5,3.07-9.53,1.27-13.83,4-2,9.62-4.3,9.86-9.5A0,0,0,0,0,281.28,201.11Z" style="fill:#263238"></path><path d="M253.09,210.5l12.7,32s-36.67,10.08-44.49,6.59S203.8,220.94,201,200s8.88-11.75,13-4.91,13.09,22.6,13.69,22.48S253.09,210.5,253.09,210.5Z" style="fill:#FFC727"></path><path d="M232.86,241.4a1.67,1.67,0,0,1-.77-.25,1.44,1.44,0,0,1-.66-1.25,1.88,1.88,0,0,0-2.27-1.83c-.32.07-.63.1-.94.19.31.09.62.12.94.18a1.94,1.94,0,0,1,.78.25,1.42,1.42,0,0,1,.71,1.21,2,2,0,0,0,1.17,1.79,1.79,1.79,0,0,0,1,.09c.31-.06.63-.1.93-.18C233.49,241.5,233.17,241.47,232.86,241.4Zm29.08-.89a1.61,1.61,0,0,1-.78-.26,1.45,1.45,0,0,1-.66-1.25,1.89,1.89,0,0,0-1.23-1.74,1.78,1.78,0,0,0-1-.08c-.32.07-.63.11-.95.19.32.09.63.12.95.18a1.67,1.67,0,0,1,.77.25,1.42,1.42,0,0,1,.71,1.22,1.94,1.94,0,0,0,1.18,1.77,1.78,1.78,0,0,0,1,.1c.31-.06.62-.1.93-.19C262.56,240.61,262.25,240.58,261.94,240.51Zm-9.57-24.24a1.85,1.85,0,0,1-.78-.26,1.45,1.45,0,0,1-.65-1.25A1.89,1.89,0,0,0,249.7,213a1.76,1.76,0,0,0-1-.07c-.32.06-.63.1-.95.19.32.08.63.11.95.17a1.89,1.89,0,0,1,.77.25,1.45,1.45,0,0,1,.72,1.22,1.92,1.92,0,0,0,1.17,1.78,1.79,1.79,0,0,0,1,.09c.31-.06.63-.09.93-.18A7.3,7.3,0,0,0,252.37,216.27Zm-40.49,16.9a1.76,1.76,0,0,1-.77-.26,1.44,1.44,0,0,1-.67-1.25,1.9,1.9,0,0,0-1.23-1.75,1.19,1.19,0,0,0-.44-.11l.27.71a1.41,1.41,0,0,1,.63,1.16,2.18,2.18,0,0,0,.08.57l0,0c0,.09.08.19.11.28l0,0a1.8,1.8,0,0,0,2,.94c.31-.06.62-.09.93-.18A7.67,7.67,0,0,0,211.88,233.17Zm34.3-4.36a7.33,7.33,0,0,0-.2-.93c-.08.31-.12.61-.18.93a1.71,1.71,0,0,1-.24.79,1.41,1.41,0,0,1-1.21.71,2,2,0,0,0-1.79,1.16,2,2,0,0,0-.1,1.05,8.16,8.16,0,0,0,.2.93c.08-.31.12-.63.18-.93a1.64,1.64,0,0,1,.27-.77,1.42,1.42,0,0,1,1.25-.67,1.88,1.88,0,0,0,1.82-2.27Zm-36.73-16.7c-.06-.31-.1-.63-.18-.94-.09.31-.14.63-.2.94a1.79,1.79,0,0,1-.23.78,1.44,1.44,0,0,1-1.22.71,1.87,1.87,0,0,0-1.88,2.21c.07.31.1.63.19.93.08-.3.12-.62.19-.93a1.85,1.85,0,0,1,.26-.77,1.44,1.44,0,0,1,1.26-.66,1.91,1.91,0,0,0,1.74-1.23A1.88,1.88,0,0,0,209.45,212.11Zm2.91-19.46-.51.35a1.69,1.69,0,0,1-.73.35,1.39,1.39,0,0,1-1.35-.42,1.92,1.92,0,0,0-2.11-.35,1.9,1.9,0,0,0-.79.68c-.17.26-.37.51-.52.79.28-.15.52-.35.79-.53a1.71,1.71,0,0,1,.73-.38,1.43,1.43,0,0,1,1.36.36,1.94,1.94,0,0,0,2.08.43,1.87,1.87,0,0,0,.81-.67c.12-.16.23-.33.33-.49s.13-.19.2-.31Zm18.22,29.16a1.84,1.84,0,0,1-.73.36,1.45,1.45,0,0,1-1.35-.41,1.94,1.94,0,0,0-2.12-.38,2,2,0,0,0-.78.7c-.17.26-.36.51-.53.79.29-.17.53-.35.8-.53a1.74,1.74,0,0,1,.73-.39,1.43,1.43,0,0,1,1.36.36,1.93,1.93,0,0,0,2.09.43,2,2,0,0,0,.81-.66c.16-.27.35-.52.52-.8C231.09,221.44,230.86,221.63,230.58,221.81Z" style="fill:#fff"></path><path d="M248.5,246.64c-10.64,2.28-23,4.28-27.2,2.41C213.47,245.56,203.8,221,201,200c-1.37-10.29.75-13.32,3.75-12.9Z" style="opacity:0.1"></path><path d="M256.59,237.4c-.38-1.09-.76-2.18-1.15-3.27-.79-2.17-5.51-15.1-7.58-19.14-.05-.11-.21,0-.18.08,1.13,4.42,6.15,17.18,7,19.29.43,1.07.86,2.15,1.3,3.22s1,2.1,1.45,3.18c.05.11.22.06.18,0C257.22,239.62,257,238.49,256.59,237.4Z" style="fill:#263238"></path><path d="M224.76,258.81l-67.6,1.85s17.19-55.26,31.09-70.18c6.33-6.78,12.53-5.76,17.79-1.41,1.31,1.08,17.6,21.67,19,28.85,1.23,6.35-3.92,13.41-3.92,13.41Z" style="fill:#FFC727"></path><path d="M181.64,252a1.54,1.54,0,0,1-.73.35,1.45,1.45,0,0,1-1.36-.41,1.9,1.9,0,0,0-2.11-.36,2,2,0,0,0-.77.68c-.18.27-.37.51-.54.8.29-.16.54-.36.8-.53a1.77,1.77,0,0,1,.72-.39,1.47,1.47,0,0,1,1.37.36,1.86,1.86,0,0,0,2.89-.23c.17-.27.37-.52.53-.8C182.15,251.64,181.91,251.83,181.64,252Zm34.91-5.11a2,2,0,0,1-.73.37,1.53,1.53,0,0,1-1.37-.41,1.84,1.84,0,0,0-2.88.31c-.17.27-.38.52-.53.79.29-.16.53-.35.79-.52a1.94,1.94,0,0,1,.72-.4,1.49,1.49,0,0,1,1.38.37,1.92,1.92,0,0,0,2.07.43,1.8,1.8,0,0,0,.81-.67c.18-.26.37-.52.52-.79C217.06,246.54,216.8,246.72,216.55,246.9Zm-24.94-21a1.62,1.62,0,0,1-.73.36,1.48,1.48,0,0,1-1.36-.41,1.93,1.93,0,0,0-2.11-.38,2,2,0,0,0-.77.7c-.18.27-.37.51-.54.79.29-.17.54-.35.8-.52a1.69,1.69,0,0,1,.73-.39,1.44,1.44,0,0,1,1.36.35,1.93,1.93,0,0,0,2.09.43,1.81,1.81,0,0,0,.8-.66c.17-.27.38-.51.53-.8C192.12,225.49,191.88,225.68,191.61,225.86Zm17.32-33.39a1.8,1.8,0,0,0-1.27.11,1.9,1.9,0,0,0-.79.68c-.17.26-.37.51-.52.79.28-.15.52-.35.79-.53a1.71,1.71,0,0,1,.73-.38,1.43,1.43,0,0,1,1.36.36,1.83,1.83,0,0,0,.89.5Zm-12.45,48.34c-.07-.32-.1-.63-.18-.94-.09.31-.13.62-.2.94a2.09,2.09,0,0,1-.23.79,1.42,1.42,0,0,1-1.22.7,1.93,1.93,0,0,0-1.78,1.17,1.72,1.72,0,0,0-.09,1c.06.31.1.63.18.93.09-.3.13-.62.2-.93a1.67,1.67,0,0,1,.24-.77,1.46,1.46,0,0,1,1.26-.66,1.9,1.9,0,0,0,1.75-1.24A1.76,1.76,0,0,0,196.48,240.81ZM178,212.11c-.07-.31-.1-.63-.2-.94-.08.31-.12.63-.18.94a1.71,1.71,0,0,1-.25.79,1.4,1.4,0,0,1-1.2.7,2,2,0,0,0-1.79,1.18,1.85,1.85,0,0,0-.1,1,9,9,0,0,0,.19.93,9,9,0,0,0,.19-.93,1.76,1.76,0,0,1,.26-.76,1.43,1.43,0,0,1,1.26-.67,1.94,1.94,0,0,0,1.75-1.23A2,2,0,0,0,178,212.11Zm31.45,0c-.06-.31-.1-.63-.18-.94-.09.31-.14.63-.2.94a1.79,1.79,0,0,1-.23.78,1.44,1.44,0,0,1-1.22.71,1.87,1.87,0,0,0-1.88,2.21c.07.31.1.63.19.93.08-.3.12-.62.19-.93a1.85,1.85,0,0,1,.26-.77,1.44,1.44,0,0,1,1.26-.66,1.91,1.91,0,0,0,1.74-1.23A1.88,1.88,0,0,0,209.45,212.11ZM176.33,237.2a1.85,1.85,0,0,1-.78-.26,1.45,1.45,0,0,1-.66-1.26,1.89,1.89,0,0,0-1.23-1.74,1.91,1.91,0,0,0-1-.07c-.3.06-.61.1-.93.18.32.09.63.13.93.2a1.8,1.8,0,0,1,.79.23,1.47,1.47,0,0,1,.72,1.22,1.9,1.9,0,0,0,1.17,1.78,2,2,0,0,0,1,.1c.31-.07.61-.1.93-.19C176.94,237.31,176.64,237.27,176.33,237.2Zm35.55-4a1.76,1.76,0,0,1-.77-.26,1.44,1.44,0,0,1-.67-1.25,1.89,1.89,0,0,0-2.27-1.83c-.31.07-.62.11-.94.2.32.08.63.11.94.17a2,2,0,0,1,.79.25,1.44,1.44,0,0,1,.71,1.22,1.94,1.94,0,0,0,1.16,1.78,1.83,1.83,0,0,0,1,.09c.31-.06.62-.09.93-.18A7.67,7.67,0,0,0,211.88,233.17ZM199,258.22a1.76,1.76,0,0,0-1-.07c-.32.06-.63.1-.94.18.31.09.62.12.94.18a2,2,0,0,1,.79.25,1.47,1.47,0,0,1,.62.75l.78,0A1.79,1.79,0,0,0,199,258.22Zm-34.68,2.06a1.47,1.47,0,0,1-.67-1.26,1.87,1.87,0,0,0-1.23-1.74,1.8,1.8,0,0,0-1-.08c-.31.07-.62.11-.94.19.32.09.63.13.94.19a1.84,1.84,0,0,1,.79.24,1.48,1.48,0,0,1,.71,1.22,2,2,0,0,0,.66,1.45l1.18,0A1.44,1.44,0,0,1,164.36,260.28Zm26.81-54.75a1.67,1.67,0,0,1-.77-.25,1.5,1.5,0,0,1-.67-1.26,1.88,1.88,0,0,0-1.23-1.74,1.84,1.84,0,0,0-1-.07c-.31.06-.63.1-.94.18.31.09.63.14.94.2a1.94,1.94,0,0,1,.78.23A1.44,1.44,0,0,1,189,204a1.9,1.9,0,0,0,1.17,1.77,1.79,1.79,0,0,0,1,.1c.32-.06.63-.1.93-.18C191.8,205.64,191.49,205.6,191.17,205.53Z" style="fill:#fff"></path><path d="M212.47,228.44a59.91,59.91,0,0,0-8.63,1.5c-1.41.38-2.79.81-4.17,1.28-.68.23-1.37.44-2.07.65a9.39,9.39,0,0,1-2.22.44.05.05,0,1,0,0,.1,15.45,15.45,0,0,0,2.15-.06,16,16,0,0,0,2-.4c1.43-.37,2.84-.8,4.27-1.18,2.87-.76,5.75-1.53,8.67-2.09C212.65,228.66,212.61,228.43,212.47,228.44Z" style="fill:#263238"></path><path d="M219.7,231a64.64,64.64,0,0,0-7.23-.28c-1.21,0-2.41.12-3.61.24l-1.72.21c-.62.09-1.24.26-1.87.34-.07,0-.07.11,0,.1.6,0,1.2,0,1.8,0l1.8-.06c1.21,0,2.41-.07,3.61-.12,2.41-.1,4.81-.18,7.22-.2C219.83,231.16,219.82,231,219.7,231Z" style="fill:#263238"></path><path d="M195.89,186.94c0,1.22,3.47,10.15,8.8,11.3,1.74.37,4.19-9,4.19-9l.34-.65,4.74-9.13-9.46-10.33-1.39-1.4s-1.13,2.58-2.51,5.81c-.06.15-.13.3-.19.46s-.17.35-.24.52l-.63,1.46c-.15.38-.31.74-.46,1.14s-.3.79-.46,1.18A65.61,65.61,0,0,0,195.89,186.94Z" style="fill:#d3766a"></path><path d="M200.6,173.53a20.64,20.64,0,0,0,8.62,15.05l4.74-9.13-9.46-10.33-1.39-1.4S202,170.3,200.6,173.53Z" style="fill:#263238"></path><path d="M231.66,168.14C228.79,186,217.8,186.25,214,185.62c-3.49-.56-15.29-2.93-14.27-21s10.2-22.31,18.24-21.44S234.53,150.32,231.66,168.14Z" style="fill:#d3766a"></path><path d="M227.9,165.87c-.38-.16-.72-.37-1.08-.56a2,2,0,0,1-1-.79.64.64,0,0,1,.21-.75,1.55,1.55,0,0,1,1.58.07,2.3,2.3,0,0,1,1.17,1.17A.67.67,0,0,1,227.9,165.87Z" style="fill:#263238"></path><path d="M216.33,163.37c.41.06.81,0,1.22.08a2.05,2.05,0,0,0,1.27-.16.63.63,0,0,0,.2-.74,1.55,1.55,0,0,0-1.38-.77,2.28,2.28,0,0,0-1.61.39A.68.68,0,0,0,216.33,163.37Z" style="fill:#263238"></path><path d="M217.77,167.41s-.1,0-.11.08c-.27,1.19-.77,2.49-1.93,2.61,0,0,0,.06,0,.07C217.07,170.32,217.71,168.57,217.77,167.41Z" style="fill:#263238"></path><path d="M217,165.92c-1.85-.62-3,3.12-1.25,3.7S218.59,166.45,217,165.92Z" style="fill:#263238"></path><path d="M216.25,165.9c-.39.12-.82.4-1.23.32s-.7-.59-.88-1.05c0,0-.06,0-.08,0a1.43,1.43,0,0,0,.57,1.87c.67.3,1.36-.18,1.76-.85C216.46,166.09,216.4,165.86,216.25,165.9Z" style="fill:#263238"></path><path d="M224.69,169s.08.08.06.13c-.36,1.15-.59,2.53.35,3.22a0,0,0,0,1,0,.06C223.84,171.88,224.16,170.05,224.69,169Z" style="fill:#263238"></path><path d="M226.08,168.1c1.91.39,1,4.18-.78,3.82S224.48,167.77,226.08,168.1Z" style="fill:#263238"></path><path d="M226.81,168.54c.25.28.46.71.81.82s.81-.2,1.17-.53c0,0,.06,0,.05,0-.15.73-.58,1.43-1.31,1.4s-1-.76-1-1.53C226.55,168.61,226.71,168.43,226.81,168.54Z" style="fill:#263238"></path><path d="M215.38,176.07c.18.36.33.82.73,1a3.26,3.26,0,0,0,1.32.14s.07,0,0,.08a1.62,1.62,0,0,1-1.66.11,1.27,1.27,0,0,1-.55-1.32A.07.07,0,0,1,215.38,176.07Z" style="fill:#263238"></path><path d="M216.94,173.92a4,4,0,0,0,2.27,2.3,5.13,5.13,0,0,0,1.41.36l.27,0,.26,0a.31.31,0,0,0,.29-.22h0a.59.59,0,0,0,0-.13h0l0-.11c.2-.88.4-2.26.4-2.26.29.23,1.8,1.32,1.87.85a61.06,61.06,0,0,0,.92-12.25.11.11,0,0,0-.22,0c-.69,3.73-.72,7.56-1.35,11.31a7,7,0,0,0-1.74-.94c-.14,0-.33,2.66-.45,3l0,0a5.58,5.58,0,0,1-3.82-2.11C217,173.76,216.89,173.82,216.94,173.92Z" style="fill:#263238"></path><path d="M199.22,166.53c3.92.75,5.9-8.26,5.9-8.26s6.85.09,10.48-3.89c0,0-2.61,3.55-5.52,4.65-.48.18,13.2,1.53,16.54-8.61,0,0-.08,10.66,5.62,14,.27.16,1-9.52-.56-12.12a20.33,20.33,0,0,0-3.18-4.12,19.53,19.53,0,0,0-13.33-6.53c-8.48-.45-15.61,7.21-17,10.67C195.58,159.14,197.36,166.18,199.22,166.53Z" style="fill:#263238"></path><path d="M210.47,159.34c7.37,1.15,14.14-2.39,16.25-9.82.05-.19.34-.12.33.06-.54,7.87-9.86,11.83-16.68,9.87C210.21,159.41,210.29,159.31,210.47,159.34Z" style="fill:#263238"></path><path d="M199.32,166.12c4.37-1.26,5.8-5.16,6.92-9.19a.11.11,0,0,1,.21,0c-.74,4-2.44,8.79-7,9.5A.18.18,0,0,1,199.32,166.12Z" style="fill:#263238"></path><path d="M227,148.87a0,0,0,0,1,.08,0c0,4.42-1.2,11.6,4,13.76a.12.12,0,0,1-.07.22C225.82,161.24,225.55,153.14,227,148.87Z" style="fill:#263238"></path><path d="M214.07,173.13a5.56,5.56,0,1,1,7.15-5.09h0a5.56,5.56,0,0,1-7.15,5.09Zm3-9.94a4.17,4.17,0,0,0-1.18-.2,4.82,4.82,0,1,0,1.18.2Z" style="fill:#FFC727"></path><path d="M226.65,175.29c-2-.62-3.26-3.26-2.76-6.12a6.64,6.64,0,0,1,1.84-3.62,3.46,3.46,0,0,1,5.84,1,6.71,6.71,0,0,1,.48,4c-.54,3-2.8,5.16-5.05,4.76Zm2.43-10.08a2.61,2.61,0,0,0-.27-.06,3,3,0,0,0-2.57.93,6,6,0,0,0-1.62,3.22c-.46,2.62.66,5,2.51,5.34s3.72-1.54,4.19-4.16a5.93,5.93,0,0,0-.42-3.58A3.09,3.09,0,0,0,229.08,165.21Z" style="fill:#FFC727"></path><path d="M220.93,168.64l-.37-.65c.95-.55,3-1.14,4.12.52l-.62.41C223.09,167.42,221,168.59,220.93,168.64Z" style="fill:#FFC727"></path><path d="M197.32,166.13l-.59-.46c.21-.27,2.1-2.69,3.78-2.66s10.18,2.29,10.59,2.4l-.19.72a97.26,97.26,0,0,0-10.41-2.38C199.39,163.73,197.83,165.46,197.32,166.13Z" style="fill:#FFC727"></path><path d="M198.6,171.24a4,4,0,0,0,.75.41,2.75,2.75,0,0,0,.82.23,2.42,2.42,0,0,0,1.09-.08,2.58,2.58,0,0,0,.79-.34,3.34,3.34,0,0,0,.91-.81l.21-4.92s-2.45-6.43-5.27-5.68S196,169.42,198.6,171.24Z" style="fill:#d3766a"></path><path d="M198.21,162.51a0,0,0,0,0,0,.08c1.83,1.34,2.43,3.5,2.69,5.65a1.68,1.68,0,0,0-2.33-1.06c-.06,0,0,.12,0,.12a1.88,1.88,0,0,1,1.84,1.14,9.06,9.06,0,0,1,.55,1.86c0,.21.41.19.39,0v0C202.05,167.62,200.94,163.48,198.21,162.51Z" style="fill:#263238"></path><path d="M199,170.56a.84.84,0,0,0,.8.87.82.82,0,0,0,.87-.79.84.84,0,0,0-.79-.88A.85.85,0,0,0,199,170.56Z" style="fill:#fff"></path><path d="M197.67,168.92a.59.59,0,0,0,.56.62.6.6,0,0,0,.62-.57.59.59,0,0,0-.57-.61A.58.58,0,0,0,197.67,168.92Z" style="fill:#fff"></path><path d="M185.11,199.52c-4,18.57-2.5,57,5.78,63.84,9.58,8,52.7,11.1,62.41,8.62,3.86-1-4.31-26.63-8.57-26.75-17.86-.53-32.84-3.14-34.29-5.3-2.24-3.33-7.57-26.36-11.24-40.79C194.58,181,186.91,191.18,185.11,199.52Z" style="fill:#d3766a"></path><polygon points="312.02 219.81 296.1 199.4 267.18 234.74 283.78 252.87 312.02 219.81" style="fill:#37474f"></polygon><path d="M309.45,218.86l-13.59-17.15-1.17,1L271.62,231.2a42.65,42.65,0,0,1,2.6,6c.86,2.73,3.1,11.36,8.35,13.54Z" style="fill:#fff"></path><path d="M308,220.69s-3.95-3.6-5.53-6.63-3-6.27-4.53-8-3.06-3.48-3.06-3.48l1-.89,13.59,17.15Z" style="fill:#ebebeb"></path><polygon points="253.49 244.44 285.47 254.47 312.02 219.81 279.44 206.92 253.49 244.44" style="fill:#455a64"></polygon><path d="M252.1,272.11c2,.08,17.07-3.71,22.12-6.32a55.29,55.29,0,0,0,14.61-10.33c6.72-6.69,10.73-12,11-15,.27-3.47.19-4.08-13.3,6.09-7.63,5.76-12.34,4.86-16.09,3.26a62.93,62.93,0,0,0-29.31-4.79S244.63,271.81,252.1,272.11Z" style="fill:#d3766a"></path><path d="M262.67,240.39a33.27,33.27,0,0,0-8.46-.08,20.39,20.39,0,0,0-7.28,2.83.09.09,0,0,0,.08.16c4.78-2.65,10.33-2.72,15.65-2.79A.06.06,0,0,0,262.67,240.39Z" style="fill:#263238"></path><path d="M272.31,250.56c-3.93-1.51,12-4.34,13.95-8.71s-2.92-4.72-7.35-3.58c-15.37,4-24.16-.07-33.53,5.85S272.31,250.56,272.31,250.56Z" style="fill:#d3766a"></path><path d="M211.7,239.19c2.71,2.05,26.23,4.75,26.23,4.75l.34,33.57s-40.34-6.24-47.75-12.68S181.46,223.74,184,205c2.35-17.62,12-25.86,16.73-4.72C200.68,200.28,210.29,238.12,211.7,239.19Z" style="fill:#FFC727"></path><path d="M238.24,274.75a1.44,1.44,0,0,1-.63-1.23,1.86,1.86,0,0,0-2.27-1.81c-.31.06-.63.09-.93.18a7.3,7.3,0,0,0,.93.19,2,2,0,0,1,.79.23,1.44,1.44,0,0,1,.7,1.22,1.93,1.93,0,0,0,1.17,1.78,1,1,0,0,0,.25.08Zm-47.07-69.22a1.67,1.67,0,0,1-.77-.25,1.5,1.5,0,0,1-.67-1.26,1.88,1.88,0,0,0-1.23-1.74,1.84,1.84,0,0,0-1-.07c-.31.06-.63.1-.94.18.31.09.63.14.94.2a1.94,1.94,0,0,1,.78.23A1.44,1.44,0,0,1,189,204a1.9,1.9,0,0,0,1.17,1.77,1.79,1.79,0,0,0,1,.1c.32-.06.63-.1.93-.18C191.8,205.64,191.49,205.6,191.17,205.53Zm10.54,55.94a1.71,1.71,0,0,1-.76-.25,1.46,1.46,0,0,1-.67-1.26,1.89,1.89,0,0,0-1.24-1.74,1.76,1.76,0,0,0-1-.07c-.32.06-.63.1-.94.18.31.09.62.12.94.18a2,2,0,0,1,.79.25,1.43,1.43,0,0,1,.7,1.22,1.92,1.92,0,0,0,1.17,1.77,1.81,1.81,0,0,0,1,.1c.31-.07.63-.1.94-.18C202.34,261.58,202,261.53,201.71,261.47Zm6.84-31.68a2.22,2.22,0,0,0-.38,0c-.31.07-.62.11-.94.2.32.08.63.11.94.17a1.87,1.87,0,0,1,.53.13C208.65,230.15,208.6,230,208.55,229.79Zm18.1,29.34a7.45,7.45,0,0,0-.19-.94c-.08.31-.12.62-.18.94a1.71,1.71,0,0,1-.25.78,1.38,1.38,0,0,1-1.2.7,2,2,0,0,0-1.8,1.18,1.87,1.87,0,0,0-.09,1c.06.31.11.63.19.94.09-.31.13-.63.19-.94a1.57,1.57,0,0,1,.26-.77,1.44,1.44,0,0,1,1.25-.67,1.85,1.85,0,0,0,1.82-2.26Zm-30.17-18.32c-.07-.32-.1-.63-.18-.94-.09.31-.13.62-.2.94a2.09,2.09,0,0,1-.23.79,1.42,1.42,0,0,1-1.22.7,1.93,1.93,0,0,0-1.78,1.17,1.72,1.72,0,0,0-.09,1c.06.31.1.63.18.93.09-.3.13-.62.2-.93a1.67,1.67,0,0,1,.24-.77,1.46,1.46,0,0,1,1.26-.66,1.9,1.9,0,0,0,1.75-1.24A1.76,1.76,0,0,0,196.48,240.81Zm-4.87-14.95a1.62,1.62,0,0,1-.73.36,1.48,1.48,0,0,1-1.36-.41,1.93,1.93,0,0,0-2.11-.38,2,2,0,0,0-.77.7c-.18.27-.37.51-.54.79.29-.17.54-.35.8-.52a1.69,1.69,0,0,1,.73-.39,1.44,1.44,0,0,1,1.36.35,1.93,1.93,0,0,0,2.09.43,1.81,1.81,0,0,0,.8-.66c.17-.27.38-.51.53-.8C192.12,225.49,191.88,225.68,191.61,225.86Zm23.26,45.95a1.66,1.66,0,0,1-.73.36,1.47,1.47,0,0,1-1.37-.41,1.85,1.85,0,0,0-2.78.18c.2.06.38.1.57.14l.31-.13a1.46,1.46,0,0,1,1.38.36,2.73,2.73,0,0,0,.25.23h0l1.4.32a1.77,1.77,0,0,0,.41-.12,1.8,1.8,0,0,0,.81-.67,8.28,8.28,0,0,0,.52-.79C215.38,271.44,215.12,271.64,214.87,271.81Zm1.68-24.91a2,2,0,0,1-.73.37,1.53,1.53,0,0,1-1.37-.41,1.84,1.84,0,0,0-2.88.31c-.17.27-.38.52-.53.79.29-.16.53-.35.79-.52a1.94,1.94,0,0,1,.72-.4,1.49,1.49,0,0,1,1.38.37,1.92,1.92,0,0,0,2.07.43,1.8,1.8,0,0,0,.81-.67c.18-.26.37-.52.52-.79C217.06,246.54,216.8,246.72,216.55,246.9Z" style="fill:#fff"></path><path d="M218.52,273.86c-1-.19-1.9-.39-2.86-.61" style="fill:#ebebeb"></path><path d="M216.21,240.64c.86.19,1.8.38,2.78.56" style="fill:#ebebeb"></path><path d="M190.42,263.76c-5.73-6.59-6.86-29.51-7-34-.12-2.87-.13-5.74-.12-8.61,0-5.75.23-11.49.53-17.23a.08.08,0,0,0-.15,0c-.62,4.28-1,8.6-1.23,12.93a45.82,45.82,0,0,1-.59-5.35c0-.08-.15-.08-.15,0a26.21,26.21,0,0,0,.7,6.18c-.18,4.36-.15,8.73.08,13.07.07,1.25.84,29.08,8,34.52,2.49,1.89,12.36,5.05,14.59,5.4.09,0,.16-.08.06-.12C202.38,269.37,192.47,266.12,190.42,263.76Z" style="fill:#263238"></path><path d="M231.7,270.82c0-1.14.08-2.27.11-3.41.06-2.28.35-15.83-.1-20.29,0-.11-.19-.1-.2,0-.54,4.47-.5,18-.49,20.21,0,1.14,0,2.28,0,3.42s.18,2.3.2,3.44c0,.12.17.14.18,0C231.48,273.09,231.66,272,231.7,270.82Z" style="fill:#263238"></path><path d="M237.92,244c-1.79-.63-19.12-3.32-22.94-3.93a7.74,7.74,0,0,1-2.73-.69,4,4,0,0,1-1.46-2.39c-.61-1.75-6.42-23.13-7-24.29-.21-.44-.46-.61-.34,0,.19,1.11,5.74,22.13,6.33,23.85s1,3.22,2.73,3.83c.77.27,24.07,4.07,25.3,4.05C238.07,244.46,238.2,244.09,237.92,244Z" style="fill:#263238"></path></g><g id="freepik--Table--inject-61"><rect x="327.82" y="295.18" width="122.14" height="8.42" style="fill:#455a64"></rect><rect x="336.98" y="303.6" width="103.82" height="16.21" style="fill:#455a64"></rect><polygon points="440.81 306.8 336.98 308.37 336.98 303.6 440.81 303.6 440.81 306.8" style="fill:#263238"></polygon><path d="M423.77,316.91H354V306.49h69.75Zm-68.75-1h67.75v-8.42H355Z" style="fill:#37474f"></path><rect x="380.72" y="310.34" width="16.34" height="2.72" style="fill:#37474f"></rect><polygon points="336.07 453.33 332.32 453.33 343.23 319.8 352.8 319.8 336.07 453.33" style="fill:#455a64"></polygon><polygon points="352.79 319.81 351.67 328.74 342.5 328.74 343.23 319.81 352.79 319.81" style="fill:#263238"></polygon><polygon points="441.72 453.33 445.47 453.33 434.56 319.8 424.99 319.8 441.72 453.33" style="fill:#455a64"></polygon><polygon points="425 319.81 426.11 328.74 435.29 328.74 434.56 319.81 425 319.81" style="fill:#263238"></polygon></g><g id="freepik--Device--inject-61"><polygon points="384.71 260.44 407.26 260.44 413.38 295.18 390.83 295.18 384.71 260.44" style="fill:#FFC727"></polygon><polygon points="384.71 260.44 407.26 260.44 413.38 295.18 390.83 295.18 384.71 260.44" style="opacity:0.2"></polygon><polygon points="407.14 260.44 384.59 260.44 378.46 295.18 401.01 295.18 407.14 260.44" style="fill:#FFC727"></polygon><polygon points="407.14 260.44 384.59 260.44 378.46 295.18 401.01 295.18 407.14 260.44" style="opacity:0.1"></polygon><path d="M406.61,256.33l-5.8,32.9a2,2,0,0,1-1.91,1.65h-16a1.34,1.34,0,0,1-1.33-1.65l5.8-32.9a2,2,0,0,1,1.91-1.64h16A1.33,1.33,0,0,1,406.61,256.33Z" style="fill:#263238"></path><path d="M404.38,254.69h-16a2,2,0,0,0-1.91,1.64l-5.8,32.9a1.33,1.33,0,0,0,1.33,1.64h16a2,2,0,0,0,1.91-1.64l5.8-32.9A1.33,1.33,0,0,0,404.38,254.69Zm-5.3,33.52a1.89,1.89,0,0,1-1.73,1.57H383.06a1.24,1.24,0,0,1-1.18-1.57l5.4-30.63c.31-1.76,1-1.85,1.78-1.85h2.86c.17,0,.27.19.23.42l0,.11c-.09.55.21.55.57.55h6.63c.37,0,.67,0,.77-.55v-.11c0-.23.21-.42.38-.42h2.86c.8,0,1.41.24,1.13,1.85Z" style="fill:#37474f"></path><path d="M404.47,257.61l-5.4,30.63a1.87,1.87,0,0,1-1.72,1.56h-14.3a1.23,1.23,0,0,1-1.17-1.56l5.4-30.63c.31-1.77,1-1.85,1.78-1.85h2.86c.17,0,.27.19.23.42l0,.1c-.1.55.2.55.57.55h6.62c.38,0,.67,0,.77-.55l0-.1c0-.23.21-.42.38-.42h2.86C404.15,255.76,404.76,256,404.47,257.61Z" style="fill:#263238"></path><g style="opacity:0.5"><polygon points="403 265.97 401.9 272.23 382.06 287.24 383.16 280.96 403 265.97" style="fill:#37474f"></polygon><path d="M398.45,256.83l-12.73,9.62,1.1-6.26,5.32-4h0v.09c-.1.55.2.55.57.55Z" style="fill:#37474f"></path><polygon points="399.74 284.48 399.19 287.61 396.28 289.8 392.69 289.8 399.74 284.48" style="fill:#37474f"></polygon><path d="M404.48,257.61l-.35,1.94-19.84,15,.55-3.13,19.69-14.87A3.67,3.67,0,0,1,404.48,257.61Z" style="fill:#37474f"></path><polygon points="403.53 262.99 403.33 264.1 383.5 279.09 383.68 277.98 403.53 262.99" style="fill:#37474f"></polygon><polygon points="400.2 281.85 400 282.96 390.95 289.8 389.68 289.8 400.2 281.85" style="fill:#37474f"></polygon></g><path d="M397,256.12h-1.81a.09.09,0,0,1-.09-.11h0a.14.14,0,0,1,.13-.11h1.81a.09.09,0,0,1,.09.11h0A.14.14,0,0,1,397,256.12Z" style="fill:#263238"></path><polygon points="400.93 295.18 377.34 295.18 378.14 290.88 401.74 290.88 400.93 295.18" style="fill:#FFC727"></polygon></g><g id="freepik--Mug--inject-61"><path d="M352,269.72s15-6.9,15-16.14-19.42-15.18-19.42-22.4S356,219.7,356,219.7s-13.36,4.57-13.36,13.71,12.8,15.32,14,21.13C358.38,262.61,352,269.72,352,269.72Z" style="fill:#ebebeb;opacity:0.6000000000000001"></path><path d="M352.76,269.72s-15-5.41-15-12.68,19.4-12,19.4-17.63-8.47-9-8.47-9,13.37,3.58,13.37,10.76-14.68,12.13-15.73,18S352.76,269.72,352.76,269.72Z" style="fill:#ebebeb;opacity:0.6000000000000001"></path><rect x="345.07" y="292.96" width="14.23" height="2.22" style="fill:#FFC727"></rect><rect x="345.07" y="292.96" width="14.23" height="1.47" style="opacity:0.1"></rect><path d="M328.17,287a8,8,0,0,0,8,3.43,8.16,8.16,0,0,0,1.45-.42,9.78,9.78,0,0,0,2-1.06l-1.81-2.68a5.91,5.91,0,0,1-1.07.61,4.71,4.71,0,0,1-5.95-1.74c-2-2.75-2.66-9-.68-11.42.13-.18.7-.46,3,0,.43.09.91.2,1.45.35a5.67,5.67,0,0,0,1.3.28l.06-1.61.15-1.61a6.57,6.57,0,0,1-.68-.18,21.65,21.65,0,0,0-3.23-.67c-1.69-.17-3.46,0-4.54,1.36C324.42,275.6,325.72,283.56,328.17,287Z" style="fill:#FFC727"></path><path d="M337.83,286.26a5.91,5.91,0,0,1-1.07.61l.87,3.13a9.78,9.78,0,0,0,2-1.06Z" style="opacity:0.1"></path><path d="M332.17,270.3l.95,3.44c.43.09.91.2,1.45.35a5.67,5.67,0,0,0,1.3.28l.06-1.61.15-1.61a6.57,6.57,0,0,1-.68-.18A21.65,21.65,0,0,0,332.17,270.3Z" style="opacity:0.1"></path><path d="M371.11,266.09s-1.7,14.51-4.65,20.62-7.07,6.79-9.62,6.79h-9.31c-2.56,0-6.67-.68-9.62-6.78s-4.67-20.61-4.67-20.61Z" style="fill:#FFC727"></path><g style="opacity:0.1"><path d="M369.09,278.14c-.29,1.34-.62,2.66-1,3.9l-31.88,0c-.35-1.25-.68-2.57-1-3.9Z"></path><path d="M367.68,283.52c-.22.69-.44,1.35-.68,2H337.37c-.24-.6-.47-1.26-.69-2Z"></path><path d="M369.82,274.48c-.12.63-.24,1.28-.38,1.95H334.91c-.13-.67-.26-1.32-.37-1.95Z"></path></g></g><g id="freepik--Plant--inject-61"><path d="M418.82,401.93s7.62-27.37,13.71-36.67S450,345.75,450,345.75,449.71,388,418.82,401.93Z" style="fill:#FFC727"></path><path d="M419.36,401.47a131.65,131.65,0,0,0,6.95-13.27,92.34,92.34,0,0,1,3.79-14.39c0-.09.16,0,.14,0-1,4.33-2.19,8.62-3.26,12.93,3.08-6.66,6-13.41,9.67-19.71a41.65,41.65,0,0,1,3.54-8.76c0-.08.17,0,.13.05a56.08,56.08,0,0,0-2.38,6.57,65.19,65.19,0,0,1,5.8-8c.13-.15.4,0,.26.19-4.9,6.26-8.28,13.37-11.51,20.58a107.6,107.6,0,0,0,9.57-12,0,0,0,0,1,.07,0,97.68,97.68,0,0,1-10.25,13.28c-2.34,5.28-4.65,10.59-7.45,15.61,5.59-4.73,9.89-10.84,14.15-16.75a.13.13,0,0,1,.21.15c-4.26,6.47-8.67,12.57-14.8,17.37a68.57,68.57,0,0,1-4.09,6.4A.33.33,0,0,1,419.36,401.47Z" style="fill:#263238"></path><path d="M416.45,404.4s13.71-25.24,9.73-49.72-8.25-33.19-8.25-33.19S396.38,359.56,416.45,404.4Z" style="fill:#FFC727"></path><path d="M410.82,364.72a120.15,120.15,0,0,0,5.3,20.38c0-9,.2-18,.44-27A69.59,69.59,0,0,1,414,341.43c0-.17.24-.16.25,0a97,97,0,0,0,2.4,14.4q.31-11.11.73-22.23a.1.1,0,0,1,.19,0c0,11.57,0,23.14-.08,34.72a93.69,93.69,0,0,0,4-13.75,0,0,0,1,1,.07,0,53.82,53.82,0,0,1-4,15.65c0,7.4-.13,14.79-.3,22.19,2.32-7.86,4.8-15.48,5.47-23.79a.09.09,0,0,1,.17,0c-.18,9.17-2.54,18.47-5.57,27.09a.51.51,0,0,1-.15.22c-.07,2.7-.14,5.4-.24,8.11a.3.3,0,0,1-.6,0q-.15-8.31-.13-16.6a74.46,74.46,0,0,1-5.41-22.72A.06.06,0,0,1,410.82,364.72Z" style="fill:#263238"></path><path d="M411.76,360.81a47,47,0,0,1,1,6.67.07.07,0,0,1-.13,0,46.89,46.89,0,0,1-1.13-6.65C411.44,360.68,411.73,360.64,411.76,360.81Z" style="fill:#263238"></path><path d="M419.78,342.36c0-.08.13-.05.13,0a17.08,17.08,0,0,1-.69,4.6c0,.12-.21.06-.18-.06C419.33,345.41,419.52,343.88,419.78,342.36Z" style="fill:#263238"></path><path d="M411.45,406.33s.56-26.35-7-39.45a56.87,56.87,0,0,0-20.1-19.77S389.41,393.56,411.45,406.33Z" style="fill:#FFC727"></path><path d="M397.68,383.8a97.74,97.74,0,0,0,10.22,13c-1.5-5.38-3.26-10.68-5.23-15.89-4.24-3.71-8.44-7.56-11-12.65a.07.07,0,0,1,.13-.07c2.79,4.5,6.53,8.11,10.46,11.57a203.88,203.88,0,0,0-10.52-22.91.17.17,0,0,1,.29-.17,125.15,125.15,0,0,1,6.6,12c-.71-2.81-1.28-5.69-2-8.49,0-.08.09-.1.12,0a47.78,47.78,0,0,1,3.1,11.17,134.46,134.46,0,0,1,6.65,18c-.19-4-.44-7.89-.85-11.83a.07.07,0,0,1,.14,0,63.52,63.52,0,0,1,1.14,13.27q1.64,5.89,2.74,11.9c0,.11-.14.16-.16.05-.41-1.68-.86-3.34-1.31-5,0,0-.06,0-.09,0a53.79,53.79,0,0,1-10.44-13.87A0,0,0,0,1,397.68,383.8Z" style="fill:#263238"></path><path d="M388.92,362.36c.84.91,1.61,1.86,2.43,2.8a22.74,22.74,0,0,1,2.17,2.54,0,0,0,0,1-.06.06,13.1,13.1,0,0,1-2.51-2.48,20.29,20.29,0,0,1-2.15-2.83A.08.08,0,0,1,388.92,362.36Z" style="fill:#263238"></path><path d="M433.91,403.11l-1,12.49-2.88,37.73H405l-2.87-37.73-.95-12.49h32.69Z" style="fill:#455a64"></path><path d="M433.91,403.11l-1,12.49H402.17l-.95-12.49h32.69Z" style="fill:#37474f"></path><rect x="398.99" y="396.99" width="37.14" height="9.57" transform="translate(835.13 803.55) rotate(180)" style="fill:#455a64"></rect></g><g id="freepik--speech-bubble--inject-61"><path d="M416.36,181.6A31.54,31.54,0,0,1,403,236.36l-7,14.33-6.8-14.23a31.55,31.55,0,1,1,27.15-54.86Z" style="fill:#FFC727"></path><path d="M397.23,222.87a16.46,16.46,0,0,1-6.64-32.05c0,.06,0,.12,0,.18,0,1.84,0,3.67,0,5.51a.28.28,0,0,1-.18.28,11,11,0,0,0-5.07,5.78,10.34,10.34,0,0,0-.24,7,10.76,10.76,0,0,0,8.29,7.68A11,11,0,0,0,405.29,212a10.81,10.81,0,0,0,1.42-6.71,10.61,10.61,0,0,0-3.9-7.2,19.53,19.53,0,0,0-1.85-1.27.3.3,0,0,1-.16-.28v-5.46c0-.07,0-.14,0-.25a16.24,16.24,0,0,1,6.09,3.56,16,16,0,0,1,5.3,11.23A16.49,16.49,0,0,1,397.23,222.87Z" style="fill:#fff"></path><path d="M398.51,187.48V206.6c0,.2-.05.25-.25.25h-5.09c-.2,0-.25,0-.25-.25V187.52c0-.27,0-.27.27-.27h5.08C398.46,187.24,398.51,187.29,398.51,187.48Z" style="fill:#fff"></path></g></svg>